<?xml version="1.0" standalone="no"?><!DOCTYPE svg PUBLIC "-//W3C//DTD SVG 1.1//EN" "http://www.w3.org/Graphics/SVG/1.1/DTD/svg11.dtd"><svg t="1599298486633" class="icon" viewBox="0 0 1024 1024" version="1.1" xmlns="http://www.w3.org/2000/svg" p-id="1319" xmlns:xlink="http://www.w3.org/1999/xlink" width="200" height="200"><defs><style type="text/css"></style></defs><path d="M620.9 67.2H236.5c-30.3 0-54.9 25-54.9 55.9v782.7c0 30.9 24.6 55.9 54.9 55.9h549c30.3 0 54.9-25 54.9-55.9v-615L620.9 67.2z" fill="#398FFF" p-id="1320"></path><path d="M802 925.9H220.1V109.7h379.6v218.9H802z" fill="#FFFFFF" p-id="1321"></path><path d="M802 922.6H220.1V106.4h379.6v218.8H802z" fill="#57A7FF" p-id="1322"></path><path d="M341.5 650.4c23.7 0 41.7 6.6 54.1 20 11.6 12.4 17.3 30.3 17.3 53.7 0 23.1-6 41.1-17.8 53.9-12.4 13.2-30.3 19.8-54.1 19.8h-53.3V650.4h53.8z m-31.2 128.2H337c18.6 0 32.4-4.5 41.1-13.4 8.5-8.9 12.8-22.5 12.8-41.1 0-19-4.3-32.6-12.6-41.3-8.7-8.9-22.3-13.2-40.9-13.2h-27v109zM554.1 669.4c12.4 13.8 18.6 32.2 18.6 54.9 0 22.5-6.2 40.7-18.6 54.7-13 14.4-30.8 21.7-53.1 21.7-22.5 0-40.3-7.4-53-21.9-12.4-14-18.4-32.2-18.4-54.5 0-22.5 6-40.7 18.4-54.7 12.8-14.9 30.5-22.1 53-22.1 22.3 0 40.1 7.2 53.1 21.9z m-89.6 13.8c-8.3 10.1-12.4 23.7-12.4 41.1 0 17.1 4.1 30.8 12.4 40.9 8.7 10.3 20.8 15.7 36.5 15.7s27.9-5.2 36.3-15.3c8.3-9.9 12.6-23.7 12.6-41.3 0-17.8-4.3-31.6-12.6-41.7-8.5-10.3-20.6-15.3-36.3-15.3-15.6 0-27.8 5.2-36.5 15.9zM701.9 660.9c10.7 8.7 17.3 20.6 19.6 35.5h-21.9c-2.5-9.9-7.2-17.3-14.2-22.1-7-4.7-15.7-7-26.4-7-15.9 0-27.9 5.4-35.9 16.3-7.6 9.9-11.4 23.5-11.4 40.7 0 17.8 3.7 31.4 11.1 41.1 7.8 10.3 20 15.5 36.5 15.5 10.7 0 19.8-2.7 26.8-8 7.4-5.8 12.6-14.5 15.5-26h21.9c-3.3 17.1-10.9 30.6-23.1 40.3-11.4 9.1-25 13.6-40.9 13.6-24.2 0-42.3-7.8-54.5-23.1-10.7-13.2-15.9-31-15.9-53.3 0-21.9 5.4-39.6 16.5-53.5 12.4-15.7 30.1-23.3 53.7-23.3 17.2-0.1 31.5 4.3 42.6 13.3z" fill="#FFFFFF" p-id="1323"></path></svg>