<?xml version="1.0" standalone="no"?><!DOCTYPE svg PUBLIC "-//W3C//DTD SVG 1.1//EN" "http://www.w3.org/Graphics/SVG/1.1/DTD/svg11.dtd"><svg t="1562125579846" class="icon" viewBox="0 0 1024 1024" version="1.1" xmlns="http://www.w3.org/2000/svg" p-id="4854" xmlns:xlink="http://www.w3.org/1999/xlink" width="200" height="200"><defs><style type="text/css"></style></defs><path d="M557.319834 636.909526V45.75714a45.693144 45.693144 0 1 0-91.428952 0v590.896402L245.957961 416.720622A45.693144 45.693144 0 1 0 181.322001 481.313918l297.368081 297.368081c7.124888 7.124888 15.999 11.391288 25.257088 12.841864a45.65048 45.65048 0 0 0 40.616128-12.628544l297.368081-297.368081a45.693144 45.693144 0 0 0-64.63596-64.63596l-219.975585 219.975584zM42.664 1024h938.608004a42.664 42.664 0 0 0 0-85.328H42.664a42.664 42.664 0 1 0 0 85.328z" p-id="4855"></path></svg>