<?xml version="1.0" standalone="no"?><!DOCTYPE svg PUBLIC "-//W3C//DTD SVG 1.1//EN" "http://www.w3.org/Graphics/SVG/1.1/DTD/svg11.dtd"><svg t="1587112920022" class="icon" viewBox="0 0 1024 1024" version="1.1" xmlns="http://www.w3.org/2000/svg" p-id="6989" xmlns:xlink="http://www.w3.org/1999/xlink" width="200" height="200"><defs><style type="text/css"></style></defs><path d="M797.696 442.368q-60.416 0-113.152 22.528t-91.648 61.952-61.952 92.16-23.04 113.152q0 50.176 17.408 97.28l-392.192 0q-21.504 0-44.544-9.216t-42.496-26.112-31.744-40.96-12.288-53.76l0-41.984 0-81.92q0-47.104-0.512-100.864t-0.512-99.84l0-78.848 0-35.84q0-61.44 34.304-97.28t94.72-35.84l503.808 0q23.552 0 47.616 8.704t43.008 24.064 31.232 35.84 12.288 44.032l0 13.312-517.12 0q-51.2 0-67.584 57.344-8.192 29.696-18.432 62.976t-18.432 61.952q-10.24 33.792-20.48 65.536-2.048 8.192-2.048 14.336 0 16.384 11.264 28.16t28.672 11.776 26.624-12.288 14.336-27.648l56.32-196.608 541.696 0q18.432 3.072 35.84 11.776t30.208 23.552 18.432 36.864 0.512 51.712q0 2.048-0.512 5.12t-1.536 8.192q-39.936-13.312-88.064-13.312zM802.816 510.976q46.08 0 86.016 17.408t70.144 47.616 47.616 70.144 17.408 86.016-17.408 86.016-47.616 70.144-70.144 47.616-86.016 17.408-86.016-17.408-70.144-47.616-47.616-70.144-17.408-86.016 17.408-86.016 47.616-70.144 70.144-47.616 86.016-17.408zM845.824 729.088l67.584-68.608q9.216-9.216 9.216-22.528t-9.216-22.528-22.528-9.216-22.528 9.216l-68.608 68.608-67.584-68.608q-9.216-9.216-22.528-9.216t-22.528 9.216-9.216 22.528 9.216 22.528l67.584 68.608-67.584 67.584q-9.216 9.216-9.216 22.528t9.216 22.528q9.216 10.24 22.528 10.24t22.528-10.24l67.584-67.584 68.608 67.584q9.216 10.24 22.528 10.24t22.528-10.24q9.216-9.216 9.216-22.528t-9.216-22.528z" p-id="6990"></path></svg>