<?xml version="1.0" standalone="no"?><!DOCTYPE svg PUBLIC "-//W3C//DTD SVG 1.1//EN" "http://www.w3.org/Graphics/SVG/1.1/DTD/svg11.dtd"><svg t="1599300220071" class="icon" viewBox="0 0 1024 1024" version="1.1" xmlns="http://www.w3.org/2000/svg" p-id="6739" xmlns:xlink="http://www.w3.org/1999/xlink" width="200" height="200"><defs><style type="text/css"></style></defs><path d="M512 0c282.7776 0 512 229.2224 512 512s-229.2224 512-512 512S0 794.7776 0 512 229.2224 0 512 0z m-7.424 369.152a35.7376 35.7376 0 0 0-35.7376 35.6864v386.9696a35.7376 35.7376 0 0 0 71.424 0V404.8384a35.7376 35.7376 0 0 0-35.6864-35.7376z m1.4336-142.8992a47.616 47.616 0 1 0 0 95.232 47.616 47.616 0 0 0 0-95.232z" fill="#555555" p-id="6740"></path></svg>