<?xml version="1.0" standalone="no"?><!DOCTYPE svg PUBLIC "-//W3C//DTD SVG 1.1//EN" "http://www.w3.org/Graphics/SVG/1.1/DTD/svg11.dtd"><svg t="1599470584972" class="icon" viewBox="0 0 1024 1024" version="1.1" xmlns="http://www.w3.org/2000/svg" p-id="6237" xmlns:xlink="http://www.w3.org/1999/xlink" width="200" height="200"><defs><style type="text/css"></style></defs><path d="M512 50.693069a486.653465 486.653465 0 1 0 486.653465 486.653466A487.160396 487.160396 0 0 0 512 50.693069z m90.994059 417.457426a30.415842 30.415842 0 0 1-25.346534 15.207921H542.415842v285.655445a30.415842 30.415842 0 0 1-60.831684 0V481.584158h-34.471287a30.415842 30.415842 0 0 1-25.346534-45.623762L486.653465 324.942574a31.683168 31.683168 0 0 1 52.720792 0l64.887129 112.285149a30.415842 30.415842 0 0 1-1.267327 30.415841z" fill="#FF5F45" p-id="6238"></path></svg>