<?xml version="1.0" standalone="no"?><!DOCTYPE svg PUBLIC "-//W3C//DTD SVG 1.1//EN" "http://www.w3.org/Graphics/SVG/1.1/DTD/svg11.dtd"><svg t="1587118118627" class="icon" viewBox="0 0 1024 1024" version="1.1" xmlns="http://www.w3.org/2000/svg" p-id="6524" xmlns:xlink="http://www.w3.org/1999/xlink" width="200" height="200"><defs><style type="text/css"></style></defs><path d="M810.3 64H213.7c-40.5 0-73.5 32.9-73.5 73.4v749.1c0 40.5 33 73.5 73.5 73.5h596.6c40.5 0 73.5-33 73.5-73.5V137.4c0-40.5-33-73.4-73.5-73.4zM320 751.8c-26.5 0-48-21.5-48-48s21.5-48 48-48 48 21.5 48 48-21.5 48-48 48z m0-192c-26.5 0-48-21.5-48-48s21.5-48 48-48 48 21.5 48 48-21.5 48-48 48z m0-191.6c-26.5 0-48-21.5-48-48s21.5-48 48-48 48 21.5 48 48-21.5 48-48 48z m422.6 358.2c-5.8 5.8-13.8 9.4-22.6 9.4H464c-17.6 0-32-14.4-32-32 0-8.8 3.6-16.8 9.4-22.6 5.8-5.8 13.8-9.4 22.6-9.4h256c17.6 0 32 14.4 32 32 0 8.8-3.6 16.8-9.4 22.6z m0-192c-5.8 5.8-13.8 9.4-22.6 9.4H464c-17.6 0-32-14.4-32-32 0-8.8 3.6-16.8 9.4-22.6 5.8-5.8 13.8-9.4 22.6-9.4h256c17.6 0 32 14.4 32 32 0 8.8-3.6 16.8-9.4 22.6z m0-191.6c-5.8 5.8-13.8 9.4-22.6 9.4H464c-17.6 0-32-14.4-32-32 0-8.8 3.6-16.8 9.4-22.6 5.8-5.8 13.8-9.4 22.6-9.4h256c17.6 0 32 14.4 32 32 0 8.8-3.6 16.8-9.4 22.6z" p-id="6525"></path></svg>