<svg data-v-1e121de1="" version="1.0" xmlns="http://www.w3.org/2000/svg" xmlns:xlink="http://www.w3.org/1999/xlink" width="100%" height="100%" viewBox="0 0 85 85" preserveAspectRatio="xMidYMid meet" color-interpolation-filters="sRGB" class="el-tooltip" style="margin: auto;">  <g data-v-1e121de1="" fill="#fff" class="bordersvg b-d1" transform="translate(5,5)"><polyline stroke="#fff" stroke-width="3" fill-opacity="0" points="0,10 0,0 75.45249938964844,5 75.45249938964844,10"></polyline> <polyline stroke="#fff" stroke-width="3" fill-opacity="0" points="0,65.45249938964844 0,75.45249938964844 75.45249938964844,70.45249938964844 75.45249938964844,65.45249938964844"></polyline> <g transform="translate(2.6512527465820312,10)"><g><rect stroke-width="2" class="i-icon-bg" x="0" y="0" width="70.14999389648438" height="55.45249938964844" fill-opacity="0"></rect> <!----> <!----> </g> <g transform="translate(0,3)"><g fill-rule="" class="tp-name" transform="translate(0,0)"><g><path d="M7.15-17.70L23.80-11.55L23.80-11.55L23.80-6.35Q20.65-7.55 14.40-9.85L14.40-9.85Q11.25-11 8.45-12.03Q5.65-13.05 4.05-13.65L4.05-13.65L4.05-16.55L4.05-18.80L4.05-21.75L23.80-29.05L23.80-23.85Q22.15-23.25 19.18-22.15Q16.20-21.05 12.90-19.80L12.90-19.80Q9.70-18.65 7.15-17.70L7.15-17.70ZM46.60-31.05L46.60-31.05L46.60-31.05Q46.30-30.30 44.58-25.60Q42.85-20.90 40.73-15Q38.60-9.10 36.98-4.55Q35.35 0 35.35 0L35.35 0L29.70 0L42-33.50L48.10-33.50Q48.10-33.50 47.65-32.95Q47.20-32.40 46.60-31.05ZM74.20-18.80L74.20-16.55L74.20-16.55L74.20-13.65Q72.65-13.05 69.83-12.03Q67-11 63.85-9.80L63.85-9.80Q57.60-7.50 54.45-6.35L54.45-6.35L54.45-11.55L71.15-17.70Q68.55-18.65 65.35-19.85L65.35-19.85Q62.05-21.05 59.07-22.15Q56.10-23.25 54.45-23.85L54.45-23.85L54.45-29.05L74.20-21.75L74.20-18.80Z" transform="translate(-4.05, 33.5)"></path></g> <!----> <!----> <!----> <!----> <!----> <!----> <!----></g> <g fill-rule="" hollow-target="custom" class="tp-slogan" transform="translate(13.959997177124023,40.5)"><!----> <!----> <g><path d="M8.06-6.05L8.06-6.05L6.94-6.05Q6.52-7.78 4.55-7.83L4.55-7.83Q1.83-7.69 1.73-4.36L1.73-4.36Q1.73-0.80 4.59-0.80L4.59-0.80Q6.56-0.84 7.03-3.19L7.03-3.19L8.16-3.19Q7.64 0.05 4.36 0.14L4.36 0.14Q0.61 0 0.52-4.31L0.52-4.31Q0.70-8.63 4.55-8.81L4.55-8.81Q7.59-8.72 8.06-6.05ZM16.31-4.27L16.31-4.27Q16.13-7.64 13.31-7.83L13.31-7.83Q10.45-7.69 10.31-4.27L10.31-4.27Q10.45-0.94 13.31-0.80L13.31-0.80Q16.13-0.98 16.31-4.27ZM17.48-4.27L17.48-4.27Q17.20 0 13.31 0.14L13.31 0.14Q9.38 0 9.09-4.27L9.09-4.27Q9.33-8.72 13.31-8.81L13.31-8.81Q17.20-8.67 17.48-4.27ZM22.36 0L18.89 0L18.89-8.58L22.41-8.58Q25.88-8.39 26.02-4.41L26.02-4.41Q25.83-0.09 22.36 0L22.36 0ZM22.22-7.64L20.06-7.64L20.06-0.98L22.31-0.98Q24.75-1.13 24.84-4.31L24.84-4.31Q24.80-7.55 22.22-7.64L22.22-7.64ZM28.78-1.03L33.94-1.03L33.94 0L27.61 0L27.61-8.58L33.84-8.58L33.84-7.59L28.78-7.59L28.78-4.92L33.47-4.92L33.47-3.89L28.78-3.89L28.78-1.03ZM39.56-3.70L36.75-3.70L36.75 0L35.58 0L35.58-8.58L39.56-8.58Q42.42-8.58 42.42-6.28L42.42-6.28Q42.42-4.88 41.20-4.22L41.20-4.22Q42.23-3.94 42.23-2.58L42.23-2.58L42.33-1.03Q42.28-0.38 42.75-0.19L42.75-0.19L42.75 0L41.30 0Q41.16-0.61 41.11-2.16L41.11-2.16Q41.16-3.70 39.56-3.70L39.56-3.70ZM39.66-7.64L36.75-7.64L36.75-4.69L39.47-4.69Q41.20-4.69 41.20-6.19L41.20-6.19Q41.20-7.64 39.66-7.64L39.66-7.64Z" transform="translate(-0.515625, 8.8125)"></path></g></g></g></g></g></svg>