<?xml version="1.0" standalone="no"?><!DOCTYPE svg PUBLIC "-//W3C//DTD SVG 1.1//EN" "http://www.w3.org/Graphics/SVG/1.1/DTD/svg11.dtd"><svg t="1599297953857" class="icon" viewBox="0 0 1024 1024" version="1.1" xmlns="http://www.w3.org/2000/svg" p-id="19222" xmlns:xlink="http://www.w3.org/1999/xlink" width="200" height="200"><defs><style type="text/css"></style></defs><path d="M512.54 498.82l320.54 150.496-320.002 157.152L192 649.314l320.54-150.494z" fill="#4988FD" p-id="19223"></path><path d="M513.078 836.466c-4.514 0-9.028-1.018-13.188-3.054L178.812 676.26a29.998 29.998 0 0 1 0.44-54.102l320.54-150.496a30.016 30.016 0 0 1 25.5 0l320.542 150.496a29.998 29.998 0 1 1 0.474 54.084l-320.002 157.152a29.986 29.986 0 0 1-13.228 3.072z m-251.688-186.59l251.666 123.178 250.728-123.132L512.54 531.96l-251.15 117.916z" fill="#4988FD" p-id="19224"></path><path d="M512.54 360.82l320.54 150.496-320.002 157.152L192 511.314l320.54-150.494z" fill="#DFECFD" p-id="19225"></path><path d="M513.078 698.466c-4.514 0-9.028-1.018-13.188-3.054L178.812 538.26a29.996 29.996 0 0 1 0.44-54.102l320.54-150.496a30.016 30.016 0 0 1 25.5 0l320.542 150.496a29.998 29.998 0 1 1 0.474 54.084l-320.002 157.152a29.986 29.986 0 0 1-13.228 3.072z m-251.688-186.59l251.666 123.178 250.728-123.132L512.54 393.96l-251.15 117.916z" fill="#DFECFD" p-id="19226"></path><path d="M511.46 226.82L832 377.314l-320.002 157.152L190.92 377.314l320.54-150.494z" fill="#4988FD" p-id="19227"></path><path d="M511.998 564.466c-4.514 0-9.028-1.018-13.188-3.054L177.732 404.26a29.996 29.996 0 0 1 0.44-54.102l320.54-150.496a30.016 30.016 0 0 1 25.5 0l320.542 150.496a29.996 29.996 0 0 1 0.474 54.084L525.22 561.394a29.954 29.954 0 0 1-13.222 3.072z m-251.688-186.59l251.664 123.178 250.73-123.134-251.244-117.96-251.15 117.916z" fill="#4988FD" p-id="19228"></path></svg>