<?xml version="1.0" standalone="no"?><!DOCTYPE svg PUBLIC "-//W3C//DTD SVG 1.1//EN" "http://www.w3.org/Graphics/SVG/1.1/DTD/svg11.dtd"><svg t="1611414532474" class="icon" viewBox="0 0 1024 1024" version="1.1" xmlns="http://www.w3.org/2000/svg" p-id="3548" xmlns:xlink="http://www.w3.org/1999/xlink" width="200" height="200"><defs><style type="text/css"></style></defs><path d="M807.756098 385.009073h77.83192v510.208368h-77.83192z" fill="#F58E6F" p-id="3549"></path><path d="M885.588018 903.245226h-77.83192a8.027786 8.027786 0 0 1-8.027786-8.027785V385.009073a8.027786 8.027786 0 0 1 8.027786-8.027785h77.83192a8.027786 8.027786 0 0 1 8.027786 8.027785v510.208368a8.027786 8.027786 0 0 1-8.027786 8.027785z m-69.804135-16.055571h61.77635V393.034859h-61.77635v494.154796z" fill="#4A555F" p-id="3550"></path><path d="M838.645272 385.009073h16.053572v510.208368h-16.053572z" fill="#4A555F" p-id="3551"></path><path d="M846.671058 1023.976001a8.023786 8.023786 0 0 1-7.639796-5.563852l-38.91496-120.730774a8.031785 8.031785 0 0 1 7.639796-10.48972h77.83192a8.033785 8.033785 0 0 1 7.639796 10.48972l-38.91496 120.730774A8.029785 8.029785 0 0 1 846.671058 1023.976001z m-27.893255-120.730775l27.893255 86.537688 27.893255-86.537688h-55.78651z" fill="#4A555F" p-id="3552"></path><path d="M827.215578 947.556042h38.91496v16.053572h-38.91496zM885.588018 393.034859h-77.83192a8.027786 8.027786 0 0 1-8.027786-8.027786v-40.924906c0-25.885308 21.059437-46.944746 46.942746-46.944746s46.942746 21.059437 46.942746 46.944746v40.924906a8.023786 8.023786 0 0 1-8.025786 8.027786z m-69.804135-16.053571h61.77635v-32.897121c0-17.033545-13.85763-30.889175-30.889175-30.889175s-30.889175 13.85763-30.889175 30.889175v32.897121z" fill="#4A555F" p-id="3553"></path><path d="M807.756098 347.70407h77.83192v16.053571h-77.83192z" fill="#4A555F" p-id="3554"></path><path d="M752.333579 956.801795H138.411982a8.027786 8.027786 0 0 1-8.027786-8.027785V224.309367c0-2.175942 0.883976-4.259886 2.451935-5.773846L356.718149 2.2573A8.029785 8.029785 0 0 1 362.294 0.00336h514.568251a8.027786 8.027786 0 0 1 8.027786 8.027785v242.811513h-16.053571V16.058931H365.535913L146.439767 227.715276v713.032948H752.333579v16.053571z" fill="#4A555F" p-id="3555"></path><path d="M850.126966 34.784431v216.038227c-53.996557 0-97.771388 43.77483-97.771388 97.771388v573.414679H165.189266V235.681063l11.719687-11.345697h185.375047v-179.115214l10.809711-10.433721h477.033255z" fill="#DFDFDF" p-id="3556"></path><path d="M362.294 232.337152H138.411982a8.025786 8.025786 0 0 1-5.575851-13.801631L356.718149 2.2573a8.025786 8.025786 0 0 1 13.603636 5.773845v216.278222a8.027786 8.027786 0 0 1-8.027785 8.027785z m-204.020549-16.055571h195.992763v-189.334941l-195.992763 189.334941zM475.620972 216.281581h220.998095v16.053571H475.620972zM253.246914 329.692551h443.372153v16.053571H253.246914zM253.246914 439.089628h443.372153v16.053571H253.246914zM253.246914 548.488705h443.372153v16.053571H253.246914zM253.246914 657.885782h443.372153v16.053571H253.246914zM253.246914 769.428802h327.559248v16.053571H253.246914z" fill="#4A555F" p-id="3557"></path></svg>