<?xml version="1.0" standalone="no"?><!DOCTYPE svg PUBLIC "-//W3C//DTD SVG 1.1//EN" "http://www.w3.org/Graphics/SVG/1.1/DTD/svg11.dtd"><svg t="1568774942068" class="icon" viewBox="0 0 1024 1024" version="1.1" xmlns="http://www.w3.org/2000/svg" p-id="7792" xmlns:xlink="http://www.w3.org/1999/xlink" width="48" height="48"><defs><style type="text/css"></style></defs><path d="M875.7 671.7c0.2-0.6 0.5-1.2 0.7-1.9 0.9-2.4 1.9-4.8 2.7-7.2 0.2-0.4 0.3-0.9 0.5-1.3l2.1-6c0.3-0.8 0.6-1.7 0.9-2.5 0.7-2.2 1.5-4.4 2.1-6.6l0.9-3 1.2-4.2c0.3-1.2 0.7-2.4 1-3.6 0.4-1.6 0.8-3.1 1.3-4.7 0.5-1.9 1-3.8 1.4-5.6l0.6-2.4c1.2-5.2 2.3-10.3 3.3-15.6 0.1-0.3 0.1-0.6 0.2-0.9 1-5.6 2-11.1 2.8-16.8H773c-8.3 0-15-6.7-15-15s6.7-15 15-15h127.4c0.1-1.6 0.2-3.1 0.2-4.7 0.1-1.9 0.2-3.8 0.2-5.7 0-0.9 0-1.7 0.1-2.6 0.1-2.5 0.1-5 0.1-7.6v-20H124v20c0 2.5 0 5 0.1 7.6 0 0.9 0 1.7 0.1 2.6 0.1 1.9 0.1 3.8 0.2 5.7 0.1 1.6 0.1 3.1 0.2 4.7h578.3c8.3 0 15 6.7 15 15s-6.7 15-15 15H127.5c0.3 2.4 0.7 4.9 1.1 7.3 0 0.3 0.1 0.5 0.1 0.8 0.4 2.2 0.7 4.5 1.2 6.7l0.3 1.8c0.4 2 0.7 3.9 1.1 5.9 0.2 1 0.4 1.9 0.6 2.9 0.4 1.7 0.7 3.4 1.1 5.1h88.6c8.3 0 15 6.7 15 15s-6.7 15-15 15h-80.2c0.8 2.4 1.6 4.7 2.4 7.1 0.1 0.2 0.2 0.5 0.3 0.7 0.7 2.1 1.5 4.2 2.3 6.4 0.3 0.8 0.6 1.7 0.9 2.5 0.6 1.6 1.2 3.2 1.9 4.8 1 2.5 2 5.1 3.1 7.6 0.1 0.3 0.3 0.6 0.4 0.9h89c8.3 0 15 6.7 15 15s-6.7 15-15 15h-74.5c5.6 10.3 11.6 20.3 18.2 30h76.3c8.3 0 15 6.7 15 15s-6.7 15-15 15H208c1.7 2 3.4 4 5.2 6 1.7 1.9 3.4 3.9 5.2 5.8l1.2 1.2c1.4 1.5 2.8 3 4.2 4.6 1.9 2 3.8 3.9 5.7 5.9 2.2 2.2 4.4 4.4 6.7 6.5h65.5c8.3 0 15 6.7 15 15s-6.7 15-15 15H272c7.6 5.5 15.4 10.8 23.4 15.7 0.2 0.1 0.3 0.2 0.5 0.3 1.6 1 3.2 1.9 4.8 2.9l2.1 1.2c1.4 0.8 2.9 1.7 4.3 2.5l2.7 1.5c1.3 0.7 2.7 1.5 4 2.2 1 0.6 2.1 1.1 3.2 1.7 1.3 0.7 2.5 1.3 3.8 2h50.8c8.3 0 15 6.7 15 15 0 3.7-1.3 7.1-3.5 9.7 2 0.6 4.1 1.2 6.1 1.7 5.9 1.6 11.9 3.1 17.9 4.4 0.5 0.1 0.9 0.2 1.4 0.3 5.4 1.2 10.8 2.2 16.3 3.1 0.9 0.1 1.8 0.3 2.7 0.4 1.5 0.2 3 0.5 4.5 0.7 1.2 0.2 2.5 0.3 3.7 0.5 1.9 0.3 3.8 0.5 5.7 0.7l5.1 0.6c1.1 0.1 2.2 0.2 3.4 0.3 1.7 0.2 3.4 0.3 5.1 0.4 0.9 0.1 1.9 0.2 2.8 0.2 2.5 0.2 5.1 0.3 7.6 0.5 0.7 0 1.4 0.1 2.1 0.1 2.1 0.1 4.1 0.2 6.2 0.2 0.8 0 1.6 0 2.4 0.1 2.7 0.1 5.4 0.1 8.1 0.1h57c48.6 0 95.7-9.6 140.1-28.3 42.8-18.2 81.3-44.2 114.4-77.2s59.1-71.5 77.2-114.4c0.8-2.3 1.8-4.8 2.8-7.3z" fill="#E9B59B" p-id="7793"></path><path d="M265 543.5c0-17.1 1.1-34 3.2-50.5h-150c-2.1 16.5-3.2 33.4-3.2 50.5C115 764.1 293.9 943 514.5 943c25.6 0 50.7-2.4 75-7C404.7 900.9 265 738.5 265 543.5z" fill="#D38B6C" p-id="7794"></path><path d="M760.5 543.5c0-17.1-1.1-34-3.2-50.5h150c2.1 16.5 3.2 33.4 3.2 50.5C910.5 764.1 731.6 943 511 943c-25.6 0-50.7-2.4-75-7 184.8-35.1 324.5-197.5 324.5-392.5z" fill="#FFD7BD" p-id="7795"></path><path d="M316.5 330.1V302h-95c0 46.9 38.1 85 85 85h66.9c-31.4 0-56.9-25.5-56.9-56.9z" fill="#D38B6C" p-id="7796"></path><path d="M470.5 302v28.1c0 31.4-25.5 56.9-56.9 56.9h66.9c46.9 0 85-38.1 85-85h-95z" fill="#FFD7BD" p-id="7797"></path><path d="M470.5 330.1V302h-154v28.1c0 31.4 25.5 56.9 56.9 56.9h40.3c31.3 0 56.8-25.5 56.8-56.9z" fill="#E9B59B" p-id="7798"></path><path d="M900 459H123c-33.1 0-60 26.9-60 60v20c0 144.7 73.1 272.2 184.4 347.7 0.6 0.5 1.3 0.9 1.9 1.3 66.8 44.9 147.2 71 233.7 71h57c232 0 420-188 420-420v-20c0-33.2-26.9-60-60-60zM794.5 793.5c-33.1 33-71.6 59-114.4 77.2C635.7 889.4 588.6 899 540 899h-57c-34.5 0-68.3-4.8-100.8-14.3 2.2-2.6 3.5-6 3.5-9.7 0-8.3-6.7-15-15-15h-50.8c-17.1-8.7-33.4-18.7-48.8-30h29.7c8.3 0 15-6.7 15-15s-6.7-15-15-15h-65.5c-2.2-2.1-4.5-4.3-6.7-6.5-7.5-7.6-14.7-15.4-21.5-23.5h53.7c8.3 0 15-6.7 15-15s-6.7-15-15-15h-76.3c-6.5-9.7-12.6-19.7-18.2-30h74.5c8.3 0 15-6.7 15-15s-6.7-15-15-15h-89c-0.1-0.3-0.3-0.6-0.4-0.9-4.1-9.6-7.6-19.3-10.8-29.1h80.2c8.3 0 15-6.7 15-15s-6.7-15-15-15h-88.6c-2.3-10.1-4.2-20.2-5.6-30.5H702c8.3 0 15-6.7 15-15s-6.7-15-15-15H123.6c-0.4-6.8-0.6-13.6-0.6-20.5v-20h777v20c0 6.9-0.2 13.7-0.6 20.5H772c-8.3 0-15 6.7-15 15s6.7 15 15 15h124.5c-4.3 30.8-12.6 60.8-24.8 89.6-18.1 42.9-44.1 81.4-77.2 114.4zM322 436h150c45.3 0 85.3-23.3 108.6-58.6 3-3.6 5.9-7 8.6-10.4 14.9-18.5 30.4-37.6 86.7-63.9 72.1-33.7 257.7-61.2 259.6-61.5 16.4-2.4 27.7-17.6 25.3-34-2.4-16.4-17.6-27.7-34-25.3-8 1.2-196.3 29.1-276.4 66.5-25.7 12-44.8 23.3-59.6 33.8-5.1-4.1-11.7-6.6-18.8-6.6H222c-16.6 0-30 13.4-30 30 0 71.7 58.3 130 130 130z m213.2-100c-0.8 1.7-1.7 3.3-2.6 4.9-0.2 0.3-0.5 0.6-0.7 0.8-2.2 2.4-4 5.1-5.2 7.9-12.8 16-32.5 26.4-54.7 26.4H322c-27.8 0-51.9-16.4-63.2-40h276.4z" fill="#561F00" p-id="7799"></path><path d="M457.3 161.8c-11.8 10.3-18.2 24.7-18.2 40.7s6.6 31.1 17.6 40.6c2.8 2.4 6.3 3.6 9.8 3.6 4.2 0 8.4-1.8 11.5-5.3 5.4-6.3 4.7-15.8-1.6-21.2-4.4-3.8-7.2-10.8-7.2-17.9-0.1-5 1.3-12.3 7.9-18 9.8-8.5 15-20.4 15.1-34.4 0.1-18.9-9-37.4-17.6-45.1-6.2-5.6-15.7-5.1-21.2 1.1-5.6 6.2-5.1 15.7 1.1 21.2 2.3 2.3 7.8 12.8 7.6 23-0.2 7.7-3.7 10.7-4.8 11.7zM375.9 161.8c-11.8 10.3-18.2 24.7-18.2 40.7s6.6 31.1 17.6 40.6c2.8 2.4 6.3 3.6 9.8 3.6 4.2 0 8.4-1.8 11.5-5.3 5.4-6.3 4.7-15.8-1.6-21.2-4.4-3.8-7.2-10.8-7.2-17.9-0.1-5 1.3-12.3 7.9-18 9.8-8.5 15-20.4 15.1-34.4 0.1-18.9-9-37.4-17.6-45.1-6.2-5.6-15.7-5.1-21.2 1.1-5.6 6.2-5.1 15.7 1.1 21.2 2.3 2.3 7.8 12.8 7.6 23-0.2 7.7-3.7 10.7-4.8 11.7zM295.9 161.8c-11.8 10.3-18.2 24.7-18.2 40.7s6.6 31.1 17.6 40.6c2.8 2.4 6.3 3.6 9.8 3.6 4.2 0 8.4-1.8 11.5-5.3 5.4-6.3 4.7-15.8-1.6-21.2-4.4-3.8-7.2-10.8-7.2-17.9-0.1-5 1.3-12.3 7.9-18 9.8-8.5 15-20.4 15.1-34.4 0.1-18.9-9-37.4-17.6-45.1-6.2-5.6-15.7-5.1-21.2 1.1-5.6 6.2-5.1 15.7 1.1 21.2 2.3 2.3 7.8 12.8 7.6 23-0.2 7.7-3.7 10.7-4.8 11.7z" fill="#561F00" p-id="7800"></path></svg>